<svg width="197" height="183" viewBox="0 0 197 183" fill="none" xmlns="http://www.w3.org/2000/svg">
<path d="M8.17424 8.94493C8.17424 7.17026 8.37146 5.96922 8.76583 5.37766C9.17813 4.76818 9.73384 4.46344 10.4509 4.46344C11.2396 4.46344 11.7594 4.80403 12.1 5.30596C12.7812 6.29189 12.7633 7.94108 12.7633 8.98079C12.7633 10.5224 12.602 11.6338 12.2435 12.3509C11.885 13.0679 11.2934 13.4264 10.4688 13.4264C9.71587 13.4264 9.14227 13.1038 8.76583 12.4943C8.38938 11.8669 8.19219 10.6838 8.19219 8.92701L8.17424 8.94493ZM10.4688 3.28032C9.23187 3.28032 8.31767 3.69262 7.69026 4.51722C7.08078 5.34181 6.75807 6.81174 6.75807 8.94493C6.75807 11.0781 7.08078 12.5481 7.69026 13.3547C8.29974 14.1793 9.23187 14.5916 10.4688 14.5916C11.7057 14.5916 12.6378 14.1614 13.2473 13.3726C13.8747 12.5481 14.1795 11.096 14.1795 8.94493C14.1795 6.79381 13.8568 5.30596 13.2473 4.49929C12.6199 3.67469 11.7057 3.28032 10.4688 3.28032ZM3.20877 3.28032C2.93988 4.7144 1.91808 5.35974 0.0537757 5.35974H0V6.4353H2.88611V14.4124H4.21262V3.28032H3.19082H3.20877Z" fill="white"/>
<path d="M16.2226 0V7.69024H17.5133V2.02564H17.5492L21.0447 7.69024H22.4788V0H21.1882V5.66461H21.1702L17.6567 0H16.2226Z" fill="white"/>
<path d="M183.938 3.87187V6.3098H182.558V7.49292H183.938V12.7452C183.938 13.9642 184.315 14.4482 185.785 14.4482H186.878V13.2651H186.502C186.215 13.2651 185.928 13.2651 185.677 13.2292C185.39 13.1934 185.265 12.9962 185.265 12.5839V7.49292H186.878V6.3098H185.265V3.87187H183.938ZM182.235 6.11262C180.963 6.11262 180.066 6.7221 179.439 8.01277H179.403V6.3098H178.148V14.4303H179.475V10.8092C179.475 8.5864 180.425 7.5467 182.415 7.5467V6.13054H182.217L182.235 6.11262ZM170.745 9.59026C170.852 8.20996 171.802 7.29573 173.057 7.29573C174.384 7.29573 175.334 8.28166 175.406 9.59026H170.745ZM173.147 6.11262C172.053 6.11262 171.121 6.52492 170.404 7.31366C169.687 8.1024 169.329 9.10626 169.329 10.2894C169.329 11.7055 169.884 13.2472 171.067 14.018C171.641 14.3944 172.376 14.5916 173.219 14.5916C175.047 14.5916 176.32 13.6415 176.696 11.831H175.37C175.155 12.8349 174.455 13.4085 173.272 13.4085C171.695 13.4085 170.745 12.3867 170.745 10.8272V10.7375H176.822V10.5762C176.822 9.24966 176.499 8.1741 175.872 7.34951C175.244 6.52492 174.312 6.09469 173.147 6.09469V6.11262ZM161.8 10.3611C161.8 8.5864 162.66 7.29573 164.274 7.29573C165.887 7.29573 166.801 8.5864 166.801 10.2894C166.801 12.2612 165.905 13.4264 164.363 13.4264C162.75 13.4264 161.8 12.2254 161.8 10.3431V10.3611ZM164.471 6.11262C163.234 6.11262 162.302 6.56077 161.871 7.40329H161.836V6.3098H160.509V17.5315H161.836V13.3368H161.871C162.445 14.1972 163.485 14.6095 164.489 14.6095C166.783 14.6095 168.199 12.8707 168.199 10.379C168.199 7.88729 166.819 6.11262 164.471 6.11262ZM151.689 6.3098L154.522 10.1639L151.474 14.4303H153.088L155.346 11.0781L157.605 14.4303H159.308L156.171 10.0563L158.967 6.32773H157.372L155.346 9.16003L153.41 6.32773H151.707L151.689 6.3098ZM144.878 9.59026C144.985 8.20996 145.935 7.29573 147.19 7.29573C148.517 7.29573 149.467 8.28166 149.538 9.59026H144.878ZM147.28 6.11262C146.186 6.11262 145.254 6.52492 144.537 7.31366C143.82 8.1024 143.461 9.10626 143.461 10.2894C143.461 11.7055 144.017 13.2472 145.2 14.018C145.774 14.3944 146.509 14.5916 147.351 14.5916C149.18 14.5916 150.453 13.6415 150.829 11.831H149.502C149.287 12.8349 148.588 13.4085 147.405 13.4085C145.828 13.4085 144.878 12.3867 144.878 10.8272V10.7375H150.954V10.5762C150.954 9.24966 150.632 8.1741 150.004 7.34951C149.377 6.52492 148.445 6.09469 147.28 6.09469V6.11262ZM137.671 3.08313C136.201 3.08313 135.449 3.83602 135.449 5.03706V6.3098H134.086V7.49292H135.449V14.4303H136.775V7.49292H138.353V6.3098H136.775V5.14462C136.775 4.58891 137.062 4.26624 137.797 4.26624C137.994 4.26624 138.353 4.30209 138.55 4.3738V3.20861C138.353 3.13691 137.868 3.08313 137.671 3.08313ZM126.862 10.3611C126.862 8.47885 127.955 7.27781 129.372 7.27781C130.788 7.27781 131.917 8.5147 131.917 10.3611C131.917 12.2074 130.842 13.4264 129.39 13.4264C127.938 13.4264 126.862 12.2074 126.862 10.3611ZM129.39 6.11262C126.952 6.11262 125.446 7.77973 125.446 10.3611C125.446 12.9424 127.023 14.5916 129.39 14.5916C131.756 14.5916 133.333 12.8707 133.333 10.3611C133.333 7.85144 131.881 6.11262 129.39 6.11262ZM114.063 9.59026C114.17 8.20996 115.12 7.29573 116.375 7.29573C117.702 7.29573 118.652 8.28166 118.724 9.59026H114.063ZM116.465 6.11262C115.371 6.11262 114.439 6.52492 113.722 7.31366C113.005 8.1024 112.647 9.10626 112.647 10.2894C112.647 11.7055 113.202 13.2472 114.385 14.018C114.959 14.3944 115.694 14.5916 116.537 14.5916C118.365 14.5916 119.638 13.6415 120.014 11.831H118.688C118.473 12.8349 117.774 13.4085 116.59 13.4085C115.013 13.4085 114.063 12.3867 114.063 10.8272V10.7375H120.14V10.5762C120.14 9.24966 119.817 8.1741 119.19 7.34951C118.562 6.52492 117.63 6.09469 116.465 6.09469V6.11262ZM104.454 6.3098L107.466 14.4303H108.9L111.876 6.3098H110.478L108.273 13.0679H108.237L105.96 6.3098H104.454ZM101.837 6.3098V14.4303H103.164V6.3098H101.837ZM101.837 3.20861V4.83987H103.164V3.20861H101.837ZM97.32 3.87187V6.3098H95.9396V7.49292H97.32V12.7452C97.32 13.9642 97.6964 14.4482 99.1664 14.4482H100.26V13.2651H99.8834C99.5966 13.2651 99.3098 13.2651 99.0588 13.2292C98.772 13.1934 98.6465 12.9962 98.6465 12.5839V7.49292H100.26V6.3098H98.6465V3.87187H97.32ZM91.7629 6.11262C89.3788 6.11262 87.9267 7.81559 87.9267 10.4686C87.9267 13.1217 89.3609 14.6095 91.7271 14.6095C93.7527 14.6095 95.0075 13.4802 95.3123 11.4546H93.9499C93.7706 12.6915 92.9998 13.4264 91.7271 13.4264C90.2571 13.4264 89.3608 12.2254 89.3608 10.4507C89.3608 8.443 90.2392 7.27781 91.8884 7.27781C92.964 7.27781 93.681 7.85144 93.8961 8.89114H95.2764C95.0613 7.04477 93.7348 6.09469 91.7809 6.09469L91.7629 6.11262ZM80.9177 9.59026C81.0253 8.20996 81.9753 7.29573 83.2301 7.29573C84.5566 7.29573 85.5067 8.28166 85.5784 9.59026H80.9177ZM83.3198 6.11262C82.2263 6.11262 81.2942 6.52492 80.5771 7.31366C79.8601 8.1024 79.5015 9.10626 79.5015 10.2894C79.5015 11.7055 80.0573 13.2472 81.2404 14.018C81.814 14.3944 82.5489 14.5916 83.3915 14.5916C85.2199 14.5916 86.4927 13.6415 86.8691 11.831H85.5426C85.3275 12.8349 84.6283 13.4085 83.4452 13.4085C81.8677 13.4085 80.9177 12.3867 80.9177 10.8272V10.7375H86.9946V10.5762C86.9946 9.24966 86.6719 8.1741 86.0445 7.34951C85.4171 6.52492 84.485 6.09469 83.3198 6.09469V6.11262ZM76.5438 3.20861V14.4123H77.8703V3.20861H76.5438ZM73.0661 3.20861V14.4123H74.3926V3.20861H73.0661ZM64.9457 10.3611C64.9457 8.47885 66.0391 7.27781 67.4553 7.27781C68.8714 7.27781 70.0007 8.5147 70.0007 10.3611C70.0007 12.2074 68.9252 13.4264 67.4732 13.4264C66.0212 13.4264 64.9457 12.2074 64.9457 10.3611ZM67.4732 6.11262C65.0353 6.11262 63.5295 7.77973 63.5295 10.3611C63.5295 12.9424 65.107 14.5916 67.4732 14.5916C69.8395 14.5916 71.4169 12.8707 71.4169 10.3611C71.4169 7.85144 69.965 6.11262 67.4732 6.11262ZM58.9225 6.11262C56.5383 6.11262 55.0864 7.81559 55.0864 10.4686C55.0864 13.1217 56.5204 14.6095 58.8867 14.6095C60.9123 14.6095 62.1671 13.4802 62.4719 11.4546H61.1095C60.9302 12.6915 60.1594 13.4264 58.8867 13.4264C57.4167 13.4264 56.5204 12.2254 56.5204 10.4507C56.5204 8.443 57.3988 7.27781 59.048 7.27781C60.1236 7.27781 60.8406 7.85144 61.0557 8.89114H62.436C62.2209 7.04477 60.8944 6.09469 58.9404 6.09469L58.9225 6.11262ZM43.7213 12.2433C43.7213 11.4008 44.2949 10.9347 45.4601 10.7734L46.8225 10.5762C47.181 10.5224 47.5395 10.3969 47.7725 10.2535V11.6517C47.7725 12.548 46.8404 13.4623 45.2988 13.4623C44.3128 13.4623 43.7213 13.0141 43.7213 12.2612V12.2433ZM46.0696 6.11262C43.9364 6.11262 42.7174 7.02684 42.6099 8.83737H43.9364C44.0081 7.77973 44.6355 7.29573 45.9621 7.29573C47.2886 7.29573 47.7725 7.74388 47.7725 8.62226C47.7725 9.19589 47.4499 9.4827 46.2847 9.62611C44.5459 9.84122 43.4524 10.1639 43.0042 10.5941C42.5382 11.0243 42.3051 11.598 42.3051 12.315C42.3051 13.767 43.3269 14.5916 44.994 14.5916C46.1951 14.5916 47.1452 14.1614 47.8443 13.3368C47.8443 14.1793 48.2566 14.5916 48.9736 14.5916C49.3501 14.5916 49.6727 14.5199 49.9237 14.3765V13.3368L49.5114 13.4085C49.2246 13.4085 49.0812 13.2472 49.0812 12.9603V8.28166C49.0812 7.00892 48.3462 6.09469 46.0517 6.09469L46.0696 6.11262ZM33.2346 6.11262C31.4599 6.11262 30.1872 6.99099 30.1872 8.42507C30.1872 9.62611 30.8863 10.2894 32.9657 10.7375C33.9875 10.9526 34.6686 11.1677 34.9913 11.3649C35.314 11.5621 35.4932 11.8669 35.4932 12.2254C35.4932 13.032 34.8121 13.4264 33.5393 13.4264C32.2666 13.4264 31.3882 12.8528 31.3523 11.8489H30.0258C30.0975 13.6774 31.4062 14.5916 33.4677 14.5916C35.5291 14.5916 36.9274 13.6415 36.9274 12.0282C36.9274 10.8092 36.1028 10.128 34.5253 9.78744L33.2704 9.50063C32.177 9.24966 31.6213 8.90907 31.6213 8.29959C31.6213 7.63633 32.2845 7.25988 33.3422 7.25988C34.3998 7.25988 35.1527 7.74388 35.2244 8.60433H36.5509C36.4434 6.90136 35.4216 6.05884 33.2346 6.05884V6.11262ZM27.1218 6.3098V14.4303H28.4483V6.3098H27.1218ZM27.1218 3.20861V4.83987H28.4483V3.20861H27.1218Z" fill="white"/>
<path d="M158.359 26.638C156.889 26.638 156.136 27.3908 156.136 28.5919V29.8646H154.773V31.0477H156.136V37.9851H157.462V31.0477H159.04V29.8646H157.462V28.6994C157.462 28.1437 157.749 27.8211 158.484 27.8211C158.681 27.8211 159.04 27.8569 159.237 27.9286V26.7634C159.04 26.6917 158.556 26.638 158.359 26.638ZM147.549 33.9159C147.549 32.0337 148.643 30.8326 150.059 30.8326C151.475 30.8326 152.604 32.0695 152.604 33.9159C152.604 35.7623 151.529 36.9812 150.077 36.9812C148.625 36.9812 147.549 35.7623 147.549 33.9159ZM150.077 29.6674C147.639 29.6674 146.133 31.3346 146.133 33.9159C146.133 36.4972 147.711 38.1464 150.077 38.1464C152.443 38.1464 154.021 36.4255 154.021 33.9159C154.021 31.4063 152.569 29.6674 150.077 29.6674ZM133.872 33.9697C133.872 32.0337 134.75 30.8326 136.292 30.8326C137.941 30.8326 138.873 32.0695 138.873 33.9159C138.873 35.7623 137.995 36.9812 136.399 36.9812C134.804 36.9812 133.89 35.6906 133.89 33.9876L133.872 33.9697ZM138.819 26.7634V30.9402H138.784C138.282 30.1156 137.206 29.6674 136.148 29.6674C133.818 29.6674 132.456 31.4063 132.456 33.898C132.456 36.3897 133.908 38.1644 136.184 38.1644C137.385 38.1644 138.353 37.7162 138.784 36.8737H138.819V37.9672H140.146V26.7634H138.819ZM129.498 26.7634V37.9672H130.824V26.7634H129.498ZM121.951 33.1272C122.059 31.7469 123.009 30.8326 124.263 30.8326C125.59 30.8326 126.54 31.8186 126.612 33.1272H121.951ZM124.353 29.6674C123.26 29.6674 122.327 30.0797 121.61 30.8685C120.893 31.6572 120.535 32.6611 120.535 33.8442C120.535 35.2604 121.091 36.802 122.274 37.5728C122.847 37.9492 123.582 38.1464 124.425 38.1464C126.253 38.1464 127.526 37.1964 127.902 35.3858H126.576C126.361 36.3897 125.662 36.9633 124.479 36.9633C122.901 36.9633 121.951 35.9415 121.951 34.382V34.2924H128.028V34.131C128.028 32.8045 127.705 31.7289 127.078 30.9043C126.45 30.0797 125.518 29.6495 124.353 29.6495V29.6674ZM117.577 29.8467V37.9672H118.904V29.8467H117.577ZM117.577 26.7634V28.3947H118.904V26.7634H117.577ZM115.623 26.638C114.153 26.638 113.4 27.3908 113.4 28.5919V29.8646H112.038V31.0477H113.4V37.9851H114.727V31.0477H116.304V29.8646H114.727V28.6994C114.727 28.1437 115.014 27.8211 115.749 27.8211C115.946 27.8211 116.304 27.8569 116.501 27.9286V26.7634C116.304 26.6917 115.82 26.638 115.623 26.638ZM101.031 33.1272C101.139 31.7469 102.089 30.8326 103.344 30.8326C104.67 30.8326 105.62 31.8186 105.692 33.1272H101.031ZM103.433 29.6674C102.34 29.6674 101.408 30.0797 100.691 30.8685C99.9738 31.6572 99.6152 32.6611 99.6152 33.8442C99.6152 35.2604 100.171 36.802 101.354 37.5728C101.928 37.9492 102.663 38.1464 103.505 38.1464C105.334 38.1464 106.606 37.1964 106.983 35.3858H105.656C105.441 36.3897 104.742 36.9633 103.559 36.9633C101.981 36.9633 101.031 35.9415 101.031 34.382V34.2924H107.108V34.131C107.108 32.8045 106.786 31.7289 106.158 30.9043C105.531 30.0797 104.599 29.6495 103.433 29.6495V29.6674ZM91.3334 26.7634V37.9672H92.66V33.3423C92.66 31.8723 93.5383 30.8506 95.0441 30.8506C96.1196 30.8506 96.7112 31.5497 96.7112 32.428V37.9672H98.0377V32.5715C98.0377 30.7072 97.2132 29.6674 95.2413 29.6674C94.094 29.6674 93.0543 30.1873 92.6779 31.0477H92.642V26.7634H91.3155H91.3334ZM86.9057 27.4088V29.8467H85.5254V31.0298H86.9057V36.2821C86.9057 37.5011 87.2822 37.9851 88.7521 37.9851H89.8456V36.802H89.4691C89.1823 36.802 88.8955 36.802 88.6445 36.7661C88.3577 36.7303 88.2322 36.5331 88.2322 36.1208V31.0298H89.8456V29.8467H88.2322V27.4088H86.9057ZM77.2257 29.6674C76.0247 29.6674 75.1822 30.1156 74.5906 31.1374H74.5547V29.8467H73.2999V37.9672H74.6264V33.3423C74.6264 31.8723 75.4868 30.8506 77.0106 30.8506C78.0861 30.8506 78.6777 31.5497 78.6777 32.428V37.9672H80.0042V32.5715C80.0042 30.7072 79.1796 29.6674 77.2078 29.6674H77.2257ZM69.8939 29.8467V37.9672H71.2205V29.8467H69.8939ZM69.8939 26.7634V28.3947H71.2205V26.7634H69.8939ZM60.3036 29.6674C58.5289 29.6674 57.2561 30.5458 57.2561 31.9799C57.2561 33.1809 57.9552 33.8442 60.0347 34.2924C61.0564 34.5075 61.7376 34.7226 62.0603 34.9198C62.383 35.1169 62.5622 35.4217 62.5622 35.7802C62.5622 36.5869 61.881 36.9812 60.6083 36.9812C59.3356 36.9812 58.4572 36.4076 58.4213 35.4038H57.0948C57.1665 37.2322 58.4751 38.1464 60.5366 38.1464C62.5981 38.1464 63.9963 37.1964 63.9963 35.583C63.9963 34.3641 63.1717 33.6829 61.5943 33.3423L60.3394 33.0555C59.2459 32.8045 58.6902 32.4639 58.6902 31.8544C58.6902 31.1912 59.3535 30.8147 60.4111 30.8147C61.4688 30.8147 62.2216 31.2987 62.2933 32.1592H63.6198C63.5123 30.4562 62.4906 29.6137 60.3036 29.6137V29.6674ZM50.1395 33.1272C50.2471 31.7469 51.1972 30.8326 52.452 30.8326C53.7785 30.8326 54.7286 31.8186 54.8003 33.1272H50.1395ZM52.5416 29.6674C51.4481 29.6674 50.516 30.0797 49.7989 30.8685C49.0819 31.6572 48.7234 32.6611 48.7234 33.8442C48.7234 35.2604 49.2791 36.802 50.4622 37.5728C51.0358 37.9492 51.7708 38.1464 52.6133 38.1464C54.4418 38.1464 55.7145 37.1964 56.091 35.3858H54.7644C54.5493 36.3897 53.8502 36.9633 52.6671 36.9633C51.0896 36.9633 50.1395 35.9415 50.1395 34.382V34.2924H56.2165V34.131C56.2165 32.8045 55.8938 31.7289 55.2664 30.9043C54.639 30.0797 53.7068 29.6495 52.5416 29.6495V29.6674ZM44.1343 29.6674C41.7502 29.6674 40.2982 31.3704 40.2982 34.0235C40.2982 36.6765 41.7323 38.1644 44.0985 38.1644C46.1241 38.1644 47.3789 37.035 47.6837 35.0094H46.3213C46.142 36.2463 45.3712 36.9812 44.0985 36.9812C42.6286 36.9812 41.7322 35.7802 41.7322 34.0055C41.7322 31.9978 42.6106 30.8326 44.2598 30.8326C45.3354 30.8326 46.0524 31.4063 46.2675 32.446H47.6479C47.4327 30.5996 46.1062 29.6495 44.1523 29.6495L44.1343 29.6674ZM37.3225 29.8467V37.9672H38.649V29.8467H37.3225ZM37.3225 26.7634V28.3947H38.649V26.7634H37.3225ZM32.823 27.4088V29.8467H31.4428V31.0298H32.823V36.2821C32.823 37.5011 33.1995 37.9851 34.6694 37.9851H35.7629V36.802H35.3864C35.0996 36.802 34.8128 36.802 34.5619 36.7661C34.275 36.7303 34.1495 36.5331 34.1495 36.1208V31.0298H35.7629V29.8467H34.1495V27.4088H32.823ZM27.266 29.6674C24.8818 29.6674 23.4298 31.3704 23.4298 34.0235C23.4298 36.6765 24.8639 38.1644 27.2301 38.1644C29.2558 38.1644 30.5106 37.035 30.8153 35.0094H29.4529C29.2737 36.2463 28.5029 36.9812 27.2301 36.9812C25.7602 36.9812 24.8639 35.7802 24.8639 34.0055C24.8639 31.9978 25.7423 30.8326 27.3915 30.8326C28.467 30.8326 29.1841 31.4063 29.3992 32.446H30.7795C30.5644 30.5996 29.2378 29.6495 27.2839 29.6495L27.266 29.6674ZM16.4208 35.7802C16.4208 34.9377 16.9944 34.4716 18.1596 34.3103L19.522 34.1131C19.8805 34.0593 20.239 33.9338 20.4721 33.7904V35.1886C20.4721 36.0849 19.5399 36.9992 17.9983 36.9992C17.0123 36.9992 16.4208 36.551 16.4208 35.7981V35.7802ZM18.7691 29.6674C16.6359 29.6674 15.4169 30.5817 15.3094 32.3922H16.6359C16.7076 31.3346 17.335 30.8506 18.6615 30.8506C19.988 30.8506 20.4721 31.2987 20.4721 32.1771C20.4721 32.7507 20.1494 33.0375 18.9842 33.1809C17.2454 33.396 16.1519 33.7187 15.7037 34.1489C15.2377 34.5792 15.0046 35.1528 15.0046 35.8698C15.0046 37.3218 16.0264 38.1464 17.6935 38.1464C18.8945 38.1464 19.8446 37.7162 20.5437 36.8916C20.5437 37.7341 20.956 38.1464 21.6731 38.1464C22.0495 38.1464 22.3722 38.0747 22.6231 37.9313V36.8916L22.2109 36.9633C21.9241 36.9633 21.7806 36.802 21.7806 36.5152V31.8365C21.7806 30.5637 21.0457 29.6495 18.7511 29.6495L18.7691 29.6674ZM14.2517 29.6674C12.979 29.6674 12.0827 30.2769 11.4553 31.5676H11.4194V29.8646H10.1646V37.9851H11.4911V34.3641C11.4911 32.1412 12.4412 31.1015 14.431 31.1015V29.6854H14.2338L14.2517 29.6674ZM2.24132 33.898C2.24132 32.1233 3.10178 30.8326 4.71511 30.8326C6.32845 30.8326 7.24268 32.1233 7.24268 33.8263C7.24268 35.7981 6.34636 36.9633 4.80472 36.9633C3.19138 36.9633 2.24132 35.7623 2.24132 33.8801V33.898ZM4.91227 29.6674C3.67538 29.6674 2.74326 30.1156 2.31304 30.9581H2.27715V29.8646H0.950648V41.0863H2.27715V36.8916H2.31304C2.88667 37.7521 3.92636 38.1644 4.93022 38.1644C7.22474 38.1644 8.64091 36.4255 8.64091 33.9338C8.64091 31.4421 7.26058 29.6674 4.91227 29.6674Z" fill="white"/>
<path d="M87.245 53.2044C85.9723 53.2044 85.076 53.8139 84.4485 55.1045H84.4127V53.4016H83.1579V61.522H84.4844V57.901C84.4844 55.6782 85.4344 54.6385 87.4242 54.6385V53.2223H87.2271L87.245 53.2044ZM75.7544 59.3351C75.7544 58.4925 76.3281 58.0265 77.4933 57.8651L78.8556 57.6679C79.2141 57.6142 79.5726 57.4887 79.8057 57.3453V58.7435C79.8057 59.6398 78.8736 60.554 77.3319 60.554C76.346 60.554 75.7544 60.1059 75.7544 59.353V59.3351ZM78.1207 53.2044C75.9875 53.2044 74.7685 54.1186 74.6609 55.9291H75.9875C76.0592 54.8715 76.6865 54.3875 78.0131 54.3875C79.3396 54.3875 79.8236 54.8356 79.8236 55.714C79.8236 56.2876 79.501 56.5745 78.3358 56.7179C76.597 56.933 75.5034 57.2557 75.0553 57.6859C74.5892 58.1161 74.3562 58.6897 74.3562 59.4068C74.3562 60.8588 75.378 61.6834 77.0451 61.6834C78.2461 61.6834 79.1962 61.2531 79.8953 60.4285C79.8953 61.2711 80.3076 61.6834 81.0247 61.6834C81.4011 61.6834 81.7238 61.6117 81.9748 61.4683V60.4285L81.5624 60.5003C81.2756 60.5003 81.1322 60.3389 81.1322 60.0521V55.3734C81.1322 54.1007 80.3973 53.1865 78.1027 53.1865L78.1207 53.2044ZM66.3612 59.7653V61.5041H67.2934V61.5758C67.2934 62.2749 66.9348 62.8306 66.3791 63.0278V63.8166C67.5443 63.476 68.1 62.5976 68.1 61.4503V59.7653H66.3612ZM56.5736 53.2044C55.4264 53.2044 54.5659 53.6525 53.9564 54.5847H53.9206V53.3836H52.6658V61.5041H53.9923V56.4131C53.9923 55.947 54.3867 55.0866 55.032 54.6922C55.3547 54.495 55.7311 54.3696 56.1614 54.3696C57.219 54.3696 57.685 54.9432 57.685 56.1084V61.4862H59.0116V56.3773C59.0116 55.2479 59.8003 54.3516 61.1268 54.3516C62.2203 54.3516 62.7043 54.9253 62.7043 56.0905V61.4683H64.0308V55.4631C64.0308 54.0469 63.1704 53.1506 61.3419 53.1506C60.2664 53.1506 59.3342 53.6705 58.7785 54.5309C58.4917 53.6525 57.7388 53.1506 56.5557 53.1506L56.5736 53.2044ZM47.521 53.2044C45.7463 53.2044 44.4736 54.0827 44.4736 55.5168C44.4736 56.7179 45.1727 57.3811 47.2521 57.8293C48.2739 58.0444 48.9551 58.2595 49.2777 58.4567C49.6004 58.6539 49.7797 58.9586 49.7797 59.3171C49.7797 60.1238 49.0985 60.5182 47.8257 60.5182C46.553 60.5182 45.6746 59.9445 45.6388 58.9407H44.3123C44.384 60.7691 45.6926 61.6834 47.7541 61.6834C49.8156 61.6834 51.2138 60.7333 51.2138 59.1199C51.2138 57.901 50.3892 57.2198 48.8117 56.8792L47.5569 56.5924C46.4634 56.3414 45.9077 56.0008 45.9077 55.3913C45.9077 54.7281 46.5709 54.3516 47.6286 54.3516C48.6862 54.3516 49.4391 54.8356 49.5108 55.6961H50.8373C50.7298 53.9931 49.708 53.1506 47.521 53.1506V53.2044ZM41.4083 53.4016V61.522H42.7348V53.4016H41.4083ZM41.4083 50.3004V51.9316H42.7348V50.3004H41.4083ZM36.5324 53.2044C35.3313 53.2044 34.4888 53.6525 33.8973 54.6743H33.8614V53.3836H32.6066V61.5041H33.9331V56.8792C33.9331 55.4093 34.7936 54.3875 36.3173 54.3875C37.3928 54.3875 37.9844 55.0866 37.9844 55.965V61.5041H39.3109V56.1084C39.3109 54.2441 38.4863 53.2044 36.5144 53.2044H36.5324ZM25.1494 59.3351C25.1494 58.4925 25.723 58.0265 26.8882 57.8651L28.2506 57.6679C28.6091 57.6142 28.9676 57.4887 29.2007 57.3453V58.7435C29.2007 59.6398 28.2685 60.554 26.7269 60.554C25.7409 60.554 25.1494 60.1059 25.1494 59.353V59.3351ZM27.4977 53.2044C25.3645 53.2044 24.1455 54.1186 24.038 55.9291H25.3645C25.4362 54.8715 26.0636 54.3875 27.3901 54.3875C28.7167 54.3875 29.2007 54.8356 29.2007 55.714C29.2007 56.2876 28.878 56.5745 27.7128 56.7179C25.974 56.933 24.8805 57.2557 24.4324 57.6859C23.9663 58.1161 23.7332 58.6897 23.7332 59.4068C23.7332 60.8588 24.755 61.6834 26.4221 61.6834C27.6232 61.6834 28.5733 61.2531 29.2724 60.4285C29.2724 61.2711 29.6846 61.6834 30.4017 61.6834C30.7781 61.6834 31.1008 61.6117 31.3518 61.4683V60.4285L30.9395 60.5003C30.6527 60.5003 30.5092 60.3389 30.5092 60.0521V55.3734C30.5092 54.1007 29.7743 53.1865 27.4798 53.1865L27.4977 53.2044ZM16.2043 57.4528C16.2043 55.6782 17.1006 54.3875 18.6781 54.3875C20.2556 54.3875 21.2057 55.6782 21.2057 57.3811C21.2057 59.353 20.3094 60.5182 18.7677 60.5182C17.1544 60.5182 16.2043 59.3171 16.2043 57.4349V57.4528ZM14.9137 50.3004V61.5041H16.2402V60.4285H16.2761C16.8497 61.289 17.8894 61.7013 18.8932 61.7013C21.1878 61.7013 22.6039 59.9625 22.6039 57.4708C22.6039 54.979 21.1877 53.2044 18.8753 53.2044C17.6205 53.2044 16.7063 53.6525 16.2761 54.495H16.2402V50.3004H14.9137ZM13.6768 53.2044C12.404 53.2044 11.5077 53.8139 10.8803 55.1045H10.8444V53.4016H9.58965V61.522H10.9162V57.901C10.9162 55.6782 11.8663 54.6385 13.856 54.6385V53.2223H13.6588L13.6768 53.2044ZM0.913483 53.4016V58.8152C0.913483 60.7154 1.80978 61.7013 3.70993 61.7013C4.83927 61.7013 5.77142 61.2531 6.34505 60.2314H6.38088V61.522H7.63572V53.4016H6.30916V58.0265C6.30916 59.4964 5.46665 60.5182 3.90709 60.5182C2.88531 60.5182 2.25793 59.8549 2.25793 58.9228V53.4016H0.913483Z" fill="white"/>
<path d="M148.319 53.2044C147.046 53.2044 146.15 53.8139 145.522 55.1045H145.486V53.4016H144.232V61.522H145.558V57.901C145.558 55.6782 146.508 54.6385 148.498 54.6385V53.2223H148.301L148.319 53.2044ZM135.555 53.4016V58.8152C135.555 60.7154 136.452 61.7013 138.352 61.7013C139.481 61.7013 140.413 61.2531 140.987 60.2314H141.023V61.522H142.278V53.4016H140.951V58.0265C140.951 59.4964 140.109 60.5182 138.549 60.5182C137.527 60.5182 136.9 59.8549 136.9 58.9228V53.4016H135.555ZM131.128 50.9636V53.4016H129.747V54.5847H131.128V59.837C131.128 61.056 131.504 61.54 132.974 61.54H134.068V60.3568H133.691C133.404 60.3568 133.117 60.3568 132.867 60.321C132.58 60.2851 132.454 60.0879 132.454 59.6757V54.5847H134.068V53.4016H132.454V50.9636H131.128ZM125.571 53.2044C123.186 53.2044 121.735 54.9073 121.735 57.5604C121.735 60.2134 123.169 61.7013 125.535 61.7013C127.56 61.7013 128.815 60.572 129.12 58.5463H127.758C127.578 59.7832 126.808 60.5182 125.535 60.5182C124.065 60.5182 123.169 59.3171 123.169 57.5425C123.169 55.5348 124.047 54.3696 125.696 54.3696C126.772 54.3696 127.489 54.9432 127.704 55.9829H129.084C128.869 54.1365 127.543 53.1865 125.589 53.1865L125.571 53.2044ZM114.725 56.682C114.833 55.3017 115.783 54.3875 117.038 54.3875C118.364 54.3875 119.315 55.3734 119.386 56.682H114.725ZM117.128 53.2044C116.034 53.2044 115.102 53.6167 114.385 54.4054C113.668 55.1942 113.309 56.198 113.309 57.3811C113.309 58.7973 113.865 60.3389 115.048 61.1097C115.622 61.4862 116.357 61.6834 117.199 61.6834C119.028 61.6834 120.3 60.7333 120.677 58.9228H119.35C119.135 59.9266 118.436 60.5003 117.253 60.5003C115.676 60.5003 114.725 59.4785 114.725 57.9189V57.8293H120.802V57.6679C120.802 56.3414 120.48 55.2659 119.852 54.4413C119.225 53.6167 118.293 53.1865 117.128 53.1865V53.2044ZM109.312 50.9636V53.4016H107.931V54.5847H109.312V59.837C109.312 61.056 109.688 61.54 111.158 61.54H112.252V60.3568H111.875C111.588 60.3568 111.302 60.3568 111.051 60.321C110.764 60.2851 110.638 60.0879 110.638 59.6757V54.5847H112.252V53.4016H110.638V50.9636H109.312ZM105.386 53.4016V61.522H106.713V53.4016H105.386ZM105.386 50.3004V51.9316H106.713V50.3004H105.386ZM96.5844 50.3004V61.5041H97.9109V56.8792C97.9109 55.4093 98.7893 54.3875 100.295 54.3875C101.371 54.3875 101.962 55.0866 101.962 55.965V61.5041H103.289V56.1084C103.289 54.2441 102.464 53.2044 100.492 53.2044C99.345 53.2044 98.3053 53.7242 97.9288 54.5847H97.893V50.3004H96.5664H96.5844ZM91.5472 53.2044C89.163 53.2044 87.711 54.9073 87.711 57.5604C87.711 60.2134 89.1451 61.7013 91.5113 61.7013C93.5369 61.7013 94.7917 60.572 95.0965 58.5463H93.7342C93.5549 59.7832 92.784 60.5182 91.5113 60.5182C90.0414 60.5182 89.1451 59.3171 89.1451 57.5425C89.1451 55.5348 90.0235 54.3696 91.6727 54.3696C92.7482 54.3696 93.4653 54.9432 93.6804 55.9829H95.0607C94.8455 54.1365 93.5191 53.1865 91.5651 53.1865L91.5472 53.2044Z" fill="white"/>
<path d="M180.156 57.5245C180.156 55.5885 181.034 54.3875 182.576 54.3875C184.225 54.3875 185.157 55.6244 185.157 57.4708C185.157 59.3171 184.279 60.5361 182.683 60.5361C181.088 60.5361 180.174 59.2454 180.174 57.5425L180.156 57.5245ZM185.085 50.3004V54.4771H185.05C184.548 53.6525 183.472 53.2044 182.414 53.2044C180.084 53.2044 178.722 54.9432 178.722 57.4349C178.722 59.9266 180.174 61.7013 182.45 61.7013C183.651 61.7013 184.619 61.2531 185.05 60.4106H185.085V61.5041H186.412V50.3004H185.085ZM174.366 53.2044C173.165 53.2044 172.322 53.6525 171.73 54.6743H171.695V53.3836H170.44V61.5041H171.766V56.8792C171.766 55.4093 172.627 54.3875 174.151 54.3875C175.226 54.3875 175.818 55.0866 175.818 55.965V61.5041H177.144V56.1084C177.144 54.2441 176.32 53.2044 174.348 53.2044H174.366ZM162.983 59.3351C162.983 58.4925 163.556 58.0265 164.721 57.8651L166.084 57.6679C166.442 57.6142 166.801 57.4887 167.034 57.3453V58.7435C167.034 59.6398 166.102 60.554 164.56 60.554C163.574 60.554 162.983 60.1059 162.983 59.353V59.3351ZM165.349 53.2044C163.216 53.2044 161.997 54.1186 161.889 55.9291H163.216C163.287 54.8715 163.915 54.3875 165.241 54.3875C166.568 54.3875 167.052 54.8356 167.052 55.714C167.052 56.2876 166.729 56.5745 165.564 56.7179C163.825 56.933 162.732 57.2556 162.284 57.6859C161.817 58.1161 161.584 58.6897 161.584 59.4068C161.584 60.8588 162.606 61.6834 164.273 61.6834C165.474 61.6834 166.424 61.2531 167.124 60.4285C167.124 61.2711 167.536 61.6834 168.253 61.6834C168.629 61.6834 168.952 61.6117 169.203 61.4683V60.4285L168.791 60.5003C168.504 60.5003 168.36 60.3389 168.36 60.0521V55.3734C168.36 54.1007 167.625 53.1865 165.331 53.1865L165.349 53.2044ZM150.201 56.682C150.309 55.3017 151.259 54.3875 152.514 54.3875C153.84 54.3875 154.79 55.3734 154.862 56.682H150.201ZM152.604 53.2044C151.51 53.2044 150.578 53.6167 149.861 54.4054C149.144 55.1942 148.785 56.198 148.785 57.3811C148.785 58.7973 149.341 60.3389 150.524 61.1097C151.098 61.4862 151.833 61.6834 152.675 61.6834C154.504 61.6834 155.776 60.7333 156.153 58.9228H154.826C154.611 59.9266 153.912 60.5003 152.729 60.5003C151.152 60.5003 150.201 59.4785 150.201 57.9189V57.8293H156.278V57.6679C156.278 56.3414 155.956 55.2659 155.328 54.4413C154.701 53.6167 153.769 53.1865 152.604 53.1865V53.2044Z" fill="white"/>
<path d="M161.961 76.759C160.688 76.759 159.792 77.3684 159.164 78.6591H159.128V76.9562H157.874V85.0766H159.2V81.4556C159.2 79.2327 160.15 78.193 162.14 78.193V76.7769H161.943L161.961 76.759ZM150.47 82.8717C150.47 82.0292 151.044 81.5631 152.209 81.4018L153.571 81.2046C153.93 81.1508 154.288 81.0253 154.521 80.8819V82.2802C154.521 83.1765 153.589 84.0907 152.048 84.0907C151.062 84.0907 150.47 83.6425 150.47 82.8896V82.8717ZM152.818 76.759C150.685 76.759 149.466 77.6732 149.359 79.4837H150.685C150.757 78.4261 151.384 77.9421 152.711 77.9421C154.037 77.9421 154.521 78.3902 154.521 79.2686C154.521 79.8422 154.199 80.129 153.034 80.2725C151.295 80.4876 150.201 80.8102 149.753 81.2405C149.287 81.6707 149.054 82.2443 149.054 82.9613C149.054 84.4134 150.076 85.238 151.743 85.238C152.944 85.238 153.894 84.8077 154.593 83.9831C154.593 84.8257 155.005 85.238 155.722 85.238C156.099 85.238 156.422 85.1663 156.672 85.0228V83.9831L156.26 84.0548C155.973 84.0548 155.83 83.8935 155.83 83.6067V78.928C155.83 77.6553 155.095 76.741 152.8 76.741L152.818 76.759ZM139.983 76.759C138.209 76.759 136.936 77.6373 136.936 79.0714C136.936 80.2725 137.635 80.9357 139.715 81.3839C140.736 81.599 141.418 81.8141 141.74 82.0113C142.063 82.2085 142.242 82.5132 142.242 82.8717C142.242 83.6784 141.561 84.0728 140.288 84.0728C139.015 84.0728 138.137 83.4991 138.101 82.4953H136.775C136.846 84.3237 138.155 85.238 140.216 85.238C142.278 85.238 143.676 84.2879 143.676 82.6745C143.676 81.4556 142.852 80.7744 141.274 80.4338L140.019 80.147C138.926 79.896 138.37 79.5554 138.37 78.9459C138.37 78.2827 139.033 77.9062 140.091 77.9062C141.149 77.9062 141.902 78.3902 141.973 79.2507H143.3C143.192 77.5477 142.17 76.7052 139.983 76.7052V76.759ZM129.819 80.2187C129.927 78.8384 130.877 77.9241 132.132 77.9241C133.458 77.9241 134.408 78.9101 134.48 80.2187H129.819ZM132.221 76.759C131.128 76.759 130.196 77.1713 129.479 77.96C128.762 78.7487 128.403 79.7526 128.403 80.9357C128.403 82.3519 128.959 83.8935 130.142 84.6643C130.716 85.0408 131.451 85.238 132.293 85.238C134.122 85.238 135.394 84.2879 135.771 82.4773H134.444C134.229 83.4812 133.53 84.0548 132.347 84.0548C130.769 84.0548 129.819 83.0331 129.819 81.4735V81.3839H135.896V81.2225C135.896 79.896 135.574 78.8204 134.946 77.9959C134.319 77.1713 133.387 76.741 132.221 76.741V76.759ZM124.424 74.5003V76.9382H123.043V78.1213H124.424V83.3736C124.424 84.5926 124.8 85.0766 126.27 85.0766H127.364V83.8935H126.987C126.7 83.8935 126.413 83.8935 126.162 83.8577C125.876 83.8218 125.75 83.6246 125.75 83.2123V78.1213H127.364V76.9382H125.75V74.5003H124.424ZM116.447 82.8717C116.447 82.0292 117.02 81.5631 118.185 81.4018L119.548 81.2046C119.906 81.1508 120.265 81.0253 120.498 80.8819V82.2802C120.498 83.1765 119.566 84.0907 118.024 84.0907C117.038 84.0907 116.447 83.6425 116.447 82.8896V82.8717ZM118.795 76.759C116.662 76.759 115.443 77.6732 115.335 79.4837H116.662C116.733 78.4261 117.361 77.9421 118.687 77.9421C120.014 77.9421 120.498 78.3902 120.498 79.2686C120.498 79.8422 120.175 80.129 119.01 80.2725C117.271 80.4876 116.178 80.8102 115.73 81.2405C115.263 81.6707 115.03 82.2443 115.03 82.9613C115.03 84.4134 116.052 85.238 117.719 85.238C118.92 85.238 119.87 84.8077 120.57 83.9831C120.57 84.8257 120.982 85.238 121.699 85.238C122.075 85.238 122.398 85.1663 122.649 85.0228V83.9831L122.237 84.0548C121.95 84.0548 121.806 83.8935 121.806 83.6067V78.928C121.806 77.6553 121.072 76.741 118.777 76.741L118.795 76.759ZM114.278 76.759C113.005 76.759 112.109 77.3684 111.481 78.6591H111.445V76.9562H110.19V85.0766H111.517V81.4556C111.517 79.2327 112.467 78.193 114.457 78.193V76.7769H114.26L114.278 76.759ZM102.787 80.2187C102.895 78.8384 103.845 77.9241 105.099 77.9241C106.426 77.9241 107.376 78.9101 107.448 80.2187H102.787ZM105.189 76.759C104.096 76.759 103.163 77.1713 102.446 77.96C101.729 78.7487 101.371 79.7526 101.371 80.9357C101.371 82.3519 101.927 83.8935 103.11 84.6643C103.683 85.0408 104.418 85.238 105.261 85.238C107.089 85.238 108.362 84.2879 108.738 82.4773H107.412C107.197 83.4812 106.498 84.0548 105.315 84.0548C103.737 84.0548 102.787 83.0331 102.787 81.4735V81.3839H108.864V81.2225C108.864 79.896 108.541 78.8204 107.914 77.9959C107.286 77.1713 106.354 76.741 105.189 76.741V76.759ZM93.842 80.9895C93.842 79.2148 94.7024 77.9241 96.3158 77.9241C97.9291 77.9241 98.8433 79.2148 98.8433 80.9178C98.8433 82.8896 97.947 84.0548 96.4054 84.0548C94.792 84.0548 93.842 82.8538 93.842 80.9716V80.9895ZM96.5129 76.759C95.276 76.759 94.3439 77.2071 93.9137 78.0496H93.8778V76.9562H92.5513V88.1778H93.8778V83.9831H93.9137C94.4873 84.8436 95.527 85.2559 96.5309 85.2559C98.8254 85.2559 100.242 83.5171 100.242 81.0254C100.242 78.5336 98.8612 76.759 96.5129 76.759ZM84.4667 81.0074C84.4667 79.1252 85.5601 77.9241 86.9763 77.9241C88.3924 77.9241 89.5218 79.161 89.5218 81.0074C89.5218 82.8538 88.4462 84.0728 86.9942 84.0728C85.5422 84.0728 84.4667 82.8538 84.4667 81.0074ZM86.9942 76.759C84.5563 76.759 83.0505 78.4261 83.0505 81.0074C83.0505 83.5888 84.628 85.238 86.9942 85.238C89.3604 85.238 90.938 83.5171 90.938 81.0074C90.938 78.4978 89.4859 76.759 86.9942 76.759ZM74.697 74.5003V76.9382H73.3167V78.1213H74.697V83.3736C74.697 84.5926 75.0735 85.0766 76.5434 85.0766H77.6369V83.8935H77.2604C76.9736 83.8935 76.6868 83.8935 76.4358 83.8577C76.149 83.8218 76.0235 83.6246 76.0235 83.2123V78.1213H77.6369V76.9382H76.0235V74.5003H74.697ZM66.7379 82.8717C66.7379 82.0292 67.3115 81.5631 68.4767 81.4018L69.839 81.2046C70.1976 81.1508 70.5561 81.0253 70.7891 80.8819V82.2802C70.7891 83.1765 69.857 84.0907 68.3154 84.0907C67.3295 84.0907 66.7379 83.6425 66.7379 82.8896V82.8717ZM69.0862 76.759C66.953 76.759 65.734 77.6732 65.6265 79.4837H66.953C67.0247 78.4261 67.6521 77.9421 68.9786 77.9421C70.3052 77.9421 70.7891 78.3902 70.7891 79.2686C70.7891 79.8422 70.4665 80.129 69.3013 80.2725C67.5625 80.4876 66.469 80.8102 66.0209 81.2405C65.5548 81.6707 65.3217 82.2443 65.3217 82.9613C65.3217 84.4134 66.3435 85.238 68.0106 85.238C69.2117 85.238 70.1617 84.8077 70.8608 83.9831C70.8608 84.8257 71.2731 85.238 71.9902 85.238C72.3666 85.238 72.6893 85.1663 72.9403 85.0228V83.9831L72.5279 84.0548C72.2411 84.0548 72.0977 83.8935 72.0977 83.6067V78.928C72.0977 77.6553 71.3628 76.741 69.0682 76.741L69.0862 76.759ZM57.022 73.855V85.0587H58.3485V80.4338C58.3485 78.9639 59.2269 77.9421 60.7327 77.9421C61.8082 77.9421 62.3998 78.6412 62.3998 79.5196V85.0587H63.7263V79.663C63.7263 77.7987 62.9017 76.759 60.9298 76.759C59.7826 76.759 58.7429 77.2788 58.3664 78.1393H58.3306V73.855H57.004H57.022ZM52.5943 74.5003V76.9382H51.214V78.1213H52.5943V83.3736C52.5943 84.5926 52.9707 85.0766 54.4406 85.0766H55.5341V83.8935H55.1577C54.8708 83.8935 54.584 83.8935 54.3331 83.8577C54.0463 83.8218 53.9208 83.6246 53.9208 83.2123V78.1213H55.5341V76.9382H53.9208V74.5003H52.5943ZM42.9142 76.759C41.7132 76.759 40.8707 77.2071 40.2791 78.2289H40.2433V76.9382H38.9885V85.0587H40.315V80.4338C40.315 78.9639 41.1754 77.9421 42.6991 77.9421C43.7747 77.9421 44.3662 78.6412 44.3662 79.5196V85.0587H45.6927V79.663C45.6927 77.7987 44.8682 76.759 42.8963 76.759H42.9142ZM30.9576 80.8819C30.9576 79.1073 31.8539 77.9241 33.3418 77.9241C34.8296 77.9241 35.6721 79.1252 35.6721 80.8282C35.6721 82.7104 34.722 83.9652 33.2521 83.9652C31.7822 83.9652 30.9576 82.7642 30.9576 80.864V80.8819ZM33.288 76.759C30.9039 76.759 29.5594 78.5874 29.5594 81.0433C29.5594 83.4991 30.9935 85.1483 33.1805 85.1483C34.3098 85.1483 35.2957 84.5747 35.708 83.6784H35.7439V84.1803C35.7439 86.2418 34.8834 87.2815 33.3059 87.2815C32.2662 87.2815 31.2444 86.8154 31.2086 85.955H29.8821C29.9538 87.5325 31.4237 88.3391 33.2521 88.3391C35.7976 88.3391 36.9987 86.9947 36.9987 84.4313V76.9203H35.7439V78.0855C35.2957 77.2609 34.4532 76.741 33.3059 76.741L33.288 76.759ZM26.5837 76.9382V85.0587H27.9102V76.9382H26.5837ZM26.5837 73.855V75.4862H27.9102V73.855H26.5837ZM21.3493 76.759C19.5746 76.759 18.3019 77.6373 18.3019 79.0714C18.3019 80.2725 19.001 80.9357 21.0804 81.3839C22.1022 81.599 22.7834 81.8141 23.1061 82.0113C23.4287 82.2085 23.608 82.5132 23.608 82.8717C23.608 83.6784 22.9268 84.0728 21.6541 84.0728C20.3813 84.0728 19.5029 83.4991 19.4671 82.4953H18.1405C18.2122 84.3237 19.5209 85.238 21.5823 85.238C23.6438 85.238 25.042 84.2879 25.042 82.6745C25.042 81.4556 24.2175 80.7744 22.64 80.4338L21.3851 80.147C20.2916 79.896 19.736 79.5554 19.736 78.9459C19.736 78.2827 20.3992 77.9062 21.4568 77.9062C22.5145 77.9062 23.2673 78.3902 23.3391 79.2507H24.6656C24.5581 77.5477 23.5363 76.7052 21.3493 76.7052V76.759ZM11.1852 80.2187C11.2928 78.8384 12.2429 77.9241 13.4977 77.9241C14.8242 77.9241 15.7743 78.9101 15.846 80.2187H11.1852ZM13.5874 76.759C12.4939 76.759 11.5617 77.1713 10.8446 77.96C10.1276 78.7487 9.76913 79.7526 9.76913 80.9357C9.76913 82.3519 10.3248 83.8935 11.508 84.6643C12.0816 85.0408 12.8165 85.238 13.659 85.238C15.4875 85.238 16.7602 84.2879 17.1367 82.4773H15.8102C15.5951 83.4812 14.8959 84.0548 13.7128 84.0548C12.1353 84.0548 11.1852 83.0331 11.1852 81.4735V81.3839H17.2622V81.2225C17.2622 79.896 16.9395 78.8204 16.3121 77.9959C15.6847 77.1713 14.7526 76.741 13.5874 76.741V76.759ZM1.88166 81.0791C1.88166 79.1431 2.76004 77.9421 4.30167 77.9421C5.95086 77.9421 6.88302 79.179 6.88302 81.0254C6.88302 82.8717 6.00464 84.0907 4.40923 84.0907C2.81381 84.0907 1.8996 82.8 1.8996 81.097L1.88166 81.0791ZM6.82924 73.855V78.0317H6.79341C6.29148 77.2071 5.21592 76.759 4.15829 76.759C1.82791 76.759 0.465544 78.4978 0.465544 80.9895C0.465544 83.4812 1.91752 85.2559 4.19412 85.2559C5.39516 85.2559 6.36319 84.8077 6.79341 83.9652H6.82924V85.0587H8.15575V73.855H6.82924Z" fill="white"/>
<path d="M190.303 81.0791C190.303 79.1431 191.181 77.9421 192.723 77.9421C194.372 77.9421 195.304 79.179 195.304 81.0254C195.304 82.8717 194.426 84.0907 192.83 84.0907C191.235 84.0907 190.321 82.8 190.321 81.097L190.303 81.0791ZM195.25 73.855V78.0317H195.214C194.713 77.2071 193.637 76.759 192.579 76.759C190.249 76.759 188.887 78.4978 188.887 80.9895C188.887 83.4812 190.339 85.2559 192.615 85.2559C193.816 85.2559 194.784 84.8077 195.214 83.9652H195.25V85.0587H196.577V73.855H195.25ZM184.531 76.759C183.33 76.759 182.487 77.2071 181.895 78.2289H181.86V76.9382H180.605V85.0587H181.931V80.4338C181.931 78.9639 182.792 77.9421 184.315 77.9421C185.391 77.9421 185.983 78.6412 185.983 79.5196V85.0587H187.309V79.663C187.309 77.7987 186.484 76.759 184.513 76.759H184.531ZM171.875 76.9382V82.3519C171.875 84.252 172.771 85.238 174.671 85.238C175.801 85.238 176.733 84.7898 177.306 83.768H177.342V85.0587H178.597V76.9382H177.271V81.5631C177.271 83.0331 176.428 84.0548 174.868 84.0548C173.847 84.0548 173.219 83.3916 173.219 82.4594V76.9382H171.875ZM163.844 81.0074C163.844 79.1252 164.937 77.9241 166.354 77.9241C167.77 77.9241 168.899 79.161 168.899 81.0074C168.899 82.8538 167.824 84.0728 166.372 84.0728C164.92 84.0728 163.844 82.8538 163.844 81.0074ZM166.372 76.759C163.934 76.759 162.428 78.4261 162.428 81.0074C162.428 83.5888 164.005 85.238 166.372 85.238C168.738 85.238 170.315 83.5171 170.315 81.0074C170.315 78.4978 168.863 76.759 166.372 76.759Z" fill="white"/>
<path d="M57.9726 104.616C57.9726 102.68 58.851 101.479 60.3926 101.479C62.0418 101.479 62.974 102.716 62.974 104.562C62.974 106.408 62.0956 107.627 60.5002 107.627C58.9048 107.627 57.9906 106.337 57.9906 104.634L57.9726 104.616ZM62.9202 97.3917V101.568H62.8844C62.3824 100.744 61.3069 100.296 60.2493 100.296C57.9189 100.296 56.5564 102.035 56.5564 104.526C56.5564 107.018 58.0085 108.793 60.2851 108.793C61.4861 108.793 62.4542 108.344 62.8844 107.502H62.9202V108.595H64.2467V97.3917H62.9202ZM53.5987 97.3917V108.595H54.9252V97.3917H53.5987ZM52.3259 100.296C51.0532 100.296 50.1569 100.905 49.5295 102.196H49.4937V100.493H48.2388V108.613H49.5653V104.992C49.5653 102.769 50.5154 101.73 52.5052 101.73V100.314H52.308L52.3259 100.296ZM40.2439 104.562C40.2439 102.68 41.3373 101.479 42.7535 101.479C44.1696 101.479 45.2989 102.716 45.2989 104.562C45.2989 106.408 44.2234 107.627 42.7714 107.627C41.3194 107.627 40.2439 106.408 40.2439 104.562ZM42.7714 100.296C40.3335 100.296 38.8277 101.963 38.8277 104.544C38.8277 107.126 40.4052 108.775 42.7714 108.775C45.1377 108.775 46.7151 107.054 46.7151 104.544C46.7151 102.035 45.2631 100.296 42.7714 100.296ZM26.638 100.493L29.2373 108.613H30.6893L32.3205 102.16L33.9877 108.613H35.4218L38.0031 100.493H36.6228L34.7943 107.126L33.0914 100.493H31.6394L30.0081 107.126H29.9723L28.1438 100.493H26.638ZM15.5598 103.773C15.6673 102.393 16.6174 101.479 17.8722 101.479C19.1987 101.479 20.1488 102.465 20.2205 103.773H15.5598ZM17.9618 100.296C16.8683 100.296 15.9362 100.708 15.2192 101.497C14.5021 102.285 14.1436 103.289 14.1436 104.472C14.1436 105.889 14.6993 107.43 15.8825 108.201C16.4561 108.578 17.191 108.775 18.0335 108.775C19.862 108.775 21.1347 107.825 21.5112 106.014H20.1847C19.9696 107.018 19.2704 107.592 18.0873 107.592C16.5098 107.592 15.5598 106.57 15.5598 105.01V104.921H21.6367V104.759C21.6367 103.433 21.314 102.357 20.6866 101.533C20.0592 100.708 19.127 100.278 17.9618 100.278V100.296ZM5.86179 97.3917V108.595H7.18835V103.971C7.18835 102.501 8.0667 101.479 9.57248 101.479C10.648 101.479 11.2396 102.178 11.2396 103.056V108.595H12.5661V103.2C12.5661 101.335 11.7416 100.296 9.7697 100.296C8.62243 100.296 7.58268 100.816 7.20624 101.676H7.17041V97.3917H5.8439H5.86179ZM1.43407 98.055V100.493H0.0537918V101.676H1.43407V106.928C1.43407 108.147 1.81057 108.631 3.2805 108.631H4.37396V107.448H3.99753C3.71071 107.448 3.42386 107.448 3.17289 107.412C2.88608 107.376 2.76063 107.179 2.76063 106.767V101.676H4.37396V100.493H2.76063V98.055H1.43407Z" fill="white"/>
<path d="M10.2708 150.22C10.2708 148.857 10.3604 146.778 12.0454 146.778C13.838 146.778 13.8739 148.875 13.8739 150.22C13.8739 151.761 13.8022 153.68 12.0634 153.68C10.9161 153.68 10.2708 152.873 10.2708 150.22ZM11.9737 144.609C9.24896 144.609 7.68943 146.778 7.68943 150.22C7.68943 153.662 9.21311 155.849 11.9737 155.849C15.2183 155.849 16.4373 153.088 16.4373 150.22C16.4373 147.137 15.0749 144.609 11.9737 144.609ZM3.67397 144.752C3.56642 146.258 2.31163 147.011 0.680365 147.011H0.447319V148.965H3.0645V155.687H5.89683V144.752H3.67397Z" fill="white"/>
<path d="M17.9619 141.275V148.965H20.2027V144.77H20.2206L22.5869 148.965H24.8814V141.275H22.6406V145.38H22.6227L20.382 141.275H17.9619Z" fill="white"/>
<path d="M100.923 150.794C101.103 149.754 101.748 149.126 102.626 149.126C103.505 149.126 104.168 149.843 104.222 150.794H100.906H100.923ZM102.662 147.316C100.368 147.316 98.2704 149.019 98.2704 151.6C98.2704 154.182 100.063 155.938 102.734 155.938C104.706 155.938 106.319 154.988 106.785 153.231H104.293C104.078 153.787 103.469 154.128 102.77 154.128C101.694 154.128 101.013 153.465 100.941 152.281H106.929V151.959C106.929 149.198 105.351 147.334 102.68 147.334L102.662 147.316ZM89.2715 147.549L91.9963 155.705H95.0796L97.8043 147.549H95.0796L93.5738 152.927H93.5379L92.0501 147.549H89.2715ZM85.6684 147.549V155.705H88.3394V147.549H85.6684ZM85.6684 144.484V146.527H88.3394V144.484H85.6684ZM80.0576 145.093V147.567H78.7131V149.288H80.0576V153.016C80.0576 155.293 80.8642 155.795 82.9078 155.795C83.3918 155.795 84.0551 155.723 84.3777 155.723V153.769C84.0551 153.769 83.9296 153.805 83.6786 153.805C82.8719 153.805 82.7285 153.482 82.7285 153.034V149.306H84.3777V147.585H82.7285V145.111H80.0576V145.093ZM74.0344 147.316C71.5248 147.316 69.7681 149.073 69.7681 151.762C69.7681 154.45 71.6682 155.938 74.0344 155.938C76.2214 155.938 77.8885 154.701 78.1395 152.497H75.5403C75.4148 153.447 74.9128 153.895 74.0344 153.895C72.9947 153.895 72.439 152.998 72.439 151.744C72.439 150.077 73.0127 149.359 74.1599 149.359C74.8411 149.359 75.4506 149.826 75.4685 150.543H78.0678C77.8706 148.499 76.2035 147.316 74.0524 147.316H74.0344ZM62.8486 150.794C63.0279 149.754 63.6732 149.126 64.5516 149.126C65.43 149.126 66.0932 149.843 66.147 150.794H62.8307H62.8486ZM64.5695 147.316C62.275 147.316 60.1777 149.019 60.1777 151.6C60.1777 154.182 61.9703 155.938 64.6412 155.938C66.6131 155.938 68.2264 154.988 68.6925 153.231H66.2008C65.9857 153.787 65.3762 154.128 64.6771 154.128C63.6016 154.128 62.9203 153.465 62.8486 152.281H68.8359V151.959C68.8359 149.198 67.2584 147.334 64.5875 147.334L64.5695 147.316ZM56.0188 144.484V155.687H58.6898V144.484H56.0188ZM51.376 144.484V155.687H54.047V144.484H51.376ZM43.9546 151.636C43.9546 150.22 44.5821 149.359 45.5501 149.359C46.6436 149.359 47.1993 150.327 47.1993 151.636C47.1993 152.945 46.6436 153.895 45.568 153.895C44.4925 153.895 43.9546 153.016 43.9546 151.636ZM45.5859 147.316C42.9687 147.316 41.3016 149.27 41.3016 151.636C41.3016 154.11 43.0763 155.938 45.5859 155.938C48.221 155.938 49.8882 153.984 49.8882 151.636C49.8882 149.162 48.0597 147.316 45.5859 147.316ZM35.1171 144.251C31.6574 144.251 29.5242 146.886 29.5242 150.094C29.5242 153.572 31.9263 155.938 35.1171 155.938C38.0211 155.938 40.0647 154.199 40.244 151.349H37.3221C37.1786 152.747 36.354 153.429 35.0634 153.429C33.4142 153.429 32.4641 152.102 32.4641 150.094C32.4641 148.087 33.4142 146.76 35.0634 146.76C36.2823 146.76 37.1428 147.334 37.3221 148.481H40.244C40.1364 145.738 37.5551 144.251 35.1171 144.251Z" fill="white"/>
<path d="M15.2727 170.942C14.0717 170.942 13.1933 171.534 12.8169 172.52H12.781V171.086H10.1817V179.242H12.8527V175.155C12.8527 174.151 13.6056 173.273 14.8604 173.273C15.2369 173.273 15.4699 173.326 15.8822 173.434V170.996C15.703 170.942 15.4699 170.924 15.2548 170.924L15.2727 170.942ZM4.6785 170.871C2.16886 170.871 0.412109 172.627 0.412109 175.316C0.412109 178.005 2.31227 179.493 4.6785 179.493C6.86547 179.493 8.53255 178.256 8.78351 176.051H6.18428C6.05879 177.001 5.55687 177.449 4.6785 177.449C3.63879 177.449 3.08306 176.553 3.08306 175.298C3.08306 173.631 3.65668 172.914 4.80394 172.914C5.48513 172.914 6.09463 173.38 6.11256 174.097H8.71185C8.51466 172.054 6.84751 170.871 4.69639 170.871H4.6785Z" fill="white"/>
<path d="M117.594 170.871C115.855 170.871 113.865 171.498 113.865 173.362C113.865 174.581 114.439 175.334 116.321 175.729C116.949 175.872 117.576 176.015 118.132 176.159C118.705 176.32 118.956 176.535 118.956 176.894C118.956 177.414 118.383 177.754 117.702 177.754C116.823 177.754 116.268 177.306 116.268 176.553H113.722C113.794 178.489 115.264 179.475 117.702 179.475C119.602 179.475 121.609 178.722 121.609 176.589C121.609 175.549 120.821 174.581 119.405 174.348C118.221 174.151 117.451 173.972 117.074 173.811C116.716 173.631 116.518 173.434 116.518 173.201C116.518 172.807 116.841 172.592 117.666 172.592C118.437 172.592 118.867 172.896 118.867 173.506H121.341C121.269 171.767 119.96 170.871 117.594 170.871ZM109.653 171.104V179.26H112.324V171.104H109.653ZM109.653 168.038V170.082H112.324V168.038H109.653ZM102.16 174.94C102.16 173.703 102.715 172.896 103.701 172.896C104.687 172.896 105.315 173.667 105.315 174.958C105.315 176.087 104.723 176.858 103.701 176.858C102.68 176.858 102.16 176.015 102.16 174.94ZM103.074 170.871C100.923 170.871 99.4888 172.502 99.4888 174.868C99.4888 177.234 100.797 178.901 103.056 178.901C103.952 178.901 104.741 178.471 105.243 177.7H105.279V178.184C105.279 179.475 105.207 180.371 103.881 180.371C102.984 180.371 102.59 180.174 102.447 179.493H99.7756C100.027 181.268 101.246 182.092 103.755 182.092C106.48 182.092 107.842 180.855 107.842 178.31V171.086H105.279V172.108H105.243C104.777 171.283 104.042 170.853 103.056 170.853L103.074 170.871ZM89.3248 168.038V179.242H98.4132V176.732H92.2467V174.599H97.75V172.341H92.2467V170.387H98.2519V168.038H89.3248ZM74.8406 171.104L76.9558 176.822C77.404 178.005 77.6191 178.597 77.6191 178.901C77.6191 179.457 77.1889 179.816 76.4898 179.816H75.6293V181.985H77.1709C78.9098 181.985 79.7165 181.59 80.3259 179.905L83.5168 171.122H80.792L79.2504 176.428H79.2145L77.6729 171.122H74.8406V171.104ZM68.5307 175.083C68.5307 173.613 69.2477 172.896 70.1619 172.896C71.2016 172.896 71.7394 173.811 71.7394 175.083C71.7394 176.446 71.1658 177.432 70.144 177.432C69.0147 177.432 68.5307 176.643 68.5307 175.083ZM65.9493 168.038V179.242H68.4948V178.292H68.5307C69.0684 179.081 69.8213 179.475 70.7714 179.475C73.3707 179.475 74.4104 177.252 74.4104 174.994C74.4104 172.735 73.2093 170.871 70.9686 170.871C69.9647 170.871 69.1939 171.247 68.6382 172H68.6023V168.038H65.9314H65.9493ZM53.4011 175.083C53.4011 173.793 54.0106 172.896 55.0145 172.896C56.09 172.896 56.6099 173.828 56.6099 175.155C56.6099 176.607 56.0721 177.432 55.0324 177.432C53.9927 177.432 53.4011 176.41 53.4011 175.083ZM56.5202 168.038V171.982H56.4844C55.9287 171.247 55.1578 170.871 54.154 170.871C52.0567 170.871 50.7122 172.609 50.7122 174.994C50.7122 177.647 52.0388 179.475 54.3512 179.475C55.3013 179.475 56.0542 179.081 56.592 178.292H56.6278V179.242H59.1733V168.038H56.5023H56.5202ZM43.8107 174.33C43.99 173.291 44.6353 172.663 45.5137 172.663C46.3921 172.663 47.0553 173.38 47.1091 174.33H43.7928H43.8107ZM45.5316 170.871C43.2371 170.871 41.1398 172.574 41.1398 175.155C41.1398 177.736 42.9324 179.493 45.6033 179.493C47.5752 179.493 49.1885 178.543 49.6546 176.786H47.1629C46.9478 177.342 46.3383 177.683 45.6392 177.683C44.5636 177.683 43.8824 177.019 43.8107 175.836H49.798V175.513C49.798 172.753 48.2205 170.889 45.5495 170.889L45.5316 170.871ZM36.0129 168.63V171.104H34.6685V172.825H36.0129V176.553C36.0129 178.83 36.8196 179.332 38.8631 179.332C39.3471 179.332 40.0104 179.26 40.3331 179.26V177.306C40.0104 177.306 39.885 177.342 39.634 177.342C38.8273 177.342 38.6839 177.019 38.6839 176.571V172.843H40.3331V171.122H38.6839V168.648H36.0129V168.63ZM28.3406 176.912C28.3406 176.356 28.6992 176.033 29.4341 175.872L30.3662 175.675C30.7427 175.603 31.0116 175.496 31.0833 175.442V175.764C31.0833 177.234 30.6351 177.844 29.4699 177.844C28.7708 177.844 28.3406 177.539 28.3406 176.912ZM29.8643 170.871C27.4981 170.871 26.0999 171.785 26.0102 173.613H28.5019C28.6274 172.932 29.0756 172.592 29.8285 172.592C30.5276 172.592 31.1192 172.914 31.1192 173.434C31.1192 174.008 30.7427 174.169 29.9719 174.259C29.3624 174.33 28.7709 174.438 28.0897 174.563C26.7273 174.796 25.6696 175.478 25.6696 177.019C25.6696 178.561 26.6914 179.493 28.4482 179.493C29.6133 179.493 30.5276 179.135 31.137 178.489C31.2088 178.955 31.2267 179.17 31.2984 179.26H33.9873C33.7542 178.812 33.6646 178.149 33.6646 177.575V173.56C33.6646 171.857 32.607 170.871 29.8643 170.871ZM18.804 174.33C18.9832 173.291 19.6286 172.663 20.507 172.663C21.3853 172.663 22.0486 173.38 22.1024 174.33H18.7861H18.804ZM20.5249 170.871C18.2304 170.871 16.133 172.574 16.133 175.155C16.133 177.736 17.9256 179.493 20.5966 179.493C22.5684 179.493 24.1818 178.543 24.6479 176.786H22.1562C21.9411 177.342 21.3316 177.683 20.6325 177.683C19.5569 177.683 18.8757 177.019 18.804 175.836H24.7913V175.513C24.7913 172.753 23.2138 170.889 20.5428 170.889L20.5249 170.871Z" fill="white"/>
</svg>
