<svg width="137" height="137" viewBox="0 0 137 137" fill="none" xmlns="http://www.w3.org/2000/svg">
<path d="M68.5 0L0 68.5092V137H68.5L137 68.5092V0H68.5ZM16.4791 128.824V106.307H7.69518V99.737H8.48869C13.9694 99.737 18.1584 97.2085 18.5459 92.1516H25.9643V128.824H16.4791ZM45.8574 129.304C36.5936 129.304 31.5004 121.829 31.5004 110.46C31.5004 99.0911 36.7043 91.6717 45.8574 91.6717C56.2099 91.6717 60.8048 100.143 60.8048 110.46C60.8048 120.039 56.745 129.304 45.8574 129.304ZM122.532 30.2312L115.631 17.9394H115.575V30.2312H109.006V7.69621H116.11L122.68 19.7296H122.735V7.69621H129.305V30.2312H122.532Z" fill="white"/>
<path d="M46.0603 98.9434C40.432 98.9434 40.1183 105.901 40.1183 110.46C40.1183 119.356 42.2773 122.032 46.1157 122.032C51.9102 122.032 52.1685 115.609 52.1685 110.46C52.1685 105.994 52.0578 98.9434 46.0603 98.9434Z" fill="white"/>
</svg>
