<svg width="146" height="21" viewBox="0 0 146 21" fill="none" xmlns="http://www.w3.org/2000/svg">
<path d="M13.5162 12.2793C13.5162 10.3971 13.6417 7.54688 15.9541 7.54688C18.41 7.54688 18.4638 10.433 18.4638 12.2793C18.4638 14.3946 18.3562 17.0297 15.99 17.0297C14.4125 17.0297 13.5341 15.9362 13.5341 12.2793H13.5162ZM15.8645 4.57117C12.118 4.57117 9.96684 7.54688 9.96684 12.2793C9.96684 17.0118 12.0642 20.0054 15.8645 20.0054C20.3281 20.0054 21.9952 16.2051 21.9952 12.2793C21.9952 8.04881 20.1129 4.57117 15.8645 4.57117ZM4.44564 4.76835C4.30224 6.84777 2.56342 7.86955 0.322668 7.86955H0V10.5584H3.60312V19.7903H7.49306V4.76835H4.44564Z" fill="white"/>
<path d="M23.6265 0V10.5584H26.7097V4.78624H26.7456L29.9723 10.5584H33.1452V0H30.0619V5.64668H30.044L26.9607 0H23.6265Z" fill="white"/>
<path d="M137.725 13.0681C137.958 11.6519 138.854 10.7735 140.073 10.7735C141.292 10.7735 142.188 11.7595 142.278 13.0681H137.725ZM140.091 8.29976C136.936 8.29976 134.05 10.6481 134.05 14.1974C134.05 17.7468 136.506 20.1488 140.18 20.1488C142.905 20.1488 145.092 18.8582 145.755 16.4382H142.332C142.027 17.191 141.202 17.675 140.234 17.675C138.764 17.675 137.814 16.7608 137.725 15.1296H145.953V14.6814C145.953 10.8811 143.766 8.31769 140.109 8.31769L140.091 8.29976ZM121.699 8.62243L125.427 19.8262H129.658L133.404 8.62243H129.676L127.596 16.0259H127.561L125.517 8.62243H121.699ZM116.733 8.62243V19.8262H120.408V8.62243H116.733ZM116.733 4.40983V7.2242H120.408V4.40983H116.733ZM109.025 5.23442V8.62243H107.161V10.9887H109.025V16.0976C109.025 19.2346 110.119 19.9158 112.933 19.9158C113.596 19.9158 114.51 19.8262 114.959 19.8082V17.1193C114.528 17.1193 114.331 17.1552 114.008 17.1552C112.915 17.1552 112.7 16.707 112.7 16.0976V10.9887H114.959V8.62243H112.7V5.23442H109.025ZM100.743 8.29976C97.2835 8.29976 94.8814 10.7198 94.8814 14.4125C94.8814 18.1053 97.4986 20.1488 100.743 20.1488C103.737 20.1488 106.031 18.4459 106.372 15.4164H102.805C102.625 16.707 101.944 17.3345 100.725 17.3345C99.3091 17.3345 98.5204 16.0976 98.5204 14.3767C98.5204 12.0821 99.3271 11.0962 100.887 11.0962C101.819 11.0962 102.661 11.7416 102.679 12.7096H106.247C105.996 9.89518 103.683 8.28184 100.725 8.28184L100.743 8.29976ZM85.3448 13.0681C85.5779 11.6519 86.4741 10.7735 87.6931 10.7735C88.9121 10.7735 89.8084 11.7595 89.898 13.0681H85.3448ZM87.729 8.29976C84.574 8.29976 81.6879 10.6481 81.6879 14.1974C81.6879 17.7468 84.1438 20.1488 87.8186 20.1488C90.5434 20.1488 92.7303 18.8582 93.3936 16.4382H89.9697C89.665 17.191 88.8404 17.675 87.8724 17.675C86.4025 17.675 85.4524 16.7608 85.3627 15.1296H93.5908V14.6814C93.5908 10.8811 91.4038 8.31769 87.7469 8.31769L87.729 8.29976ZM75.9695 4.40983V19.8262H79.6444V4.40983H75.9695ZM69.57 4.40983V19.8262H73.2448V4.40983H69.57ZM59.388 14.2333C59.388 12.2973 60.2484 11.0962 61.5929 11.0962C63.0987 11.0962 63.8516 12.4407 63.8516 14.2333C63.8516 16.0259 63.0987 17.3345 61.6108 17.3345C60.123 17.3345 59.388 16.1334 59.388 14.2333ZM61.6108 8.29976C58.0077 8.29976 55.7132 10.9887 55.7132 14.2333C55.7132 17.6392 58.1511 20.1488 61.6108 20.1488C65.2319 20.1488 67.5264 17.4779 67.5264 14.2333C67.5264 10.8273 65.0168 8.29976 61.6108 8.29976ZM47.2342 4.08716C42.4838 4.08716 39.5439 7.70821 39.5439 12.118C39.5439 16.8863 42.8423 20.1488 47.2342 20.1488C51.2317 20.1488 54.0281 17.7468 54.2612 13.8389H50.2458C50.0486 15.757 48.9013 16.6891 47.1446 16.6891C44.8859 16.6891 43.5594 14.8607 43.5594 12.118C43.5594 9.37532 44.868 7.54687 47.1446 7.54687C48.8296 7.54687 49.9948 8.31769 50.2458 9.9131H54.2612C54.1178 6.13072 50.5684 4.08716 47.2342 4.08716Z" fill="white"/>
</svg>
